<?xml version="1.0" encoding="utf-8"?>
<!-- Generator: Adobe Adobe Illustrator 29.2.0, SVG Export Plug-In . SVG Version: 6.00 Build 0)  -->
<svg version="1.1" id="Layer_1" xmlns="http://www.w3.org/2000/svg" xmlns:xlink="http://www.w3.org/1999/xlink" x="0px" y="0px"
	 viewBox="0 0 305 176" style="enable-background:new 0 0 305 176;" xml:space="preserve">
<style type="text/css">
	.st0{fill:#526bc7;}
</style>
<path class="st0" d="M7.4,122.5L111.6,10.7c5.3-5.7,14.1-6,19.8-0.7l35.2,32.8L49.4,168.5c-5.3,5.7-14.1,6-19.8,0.7L8.4,149.4
	C0.7,142.2,0.3,130.2,7.4,122.5z"/>
<path class="st0" d="M106.1,122.5L210.3,10.7c5.3-5.7,14.1-6,19.8-0.7l35.2,32.8L148.1,168.5c-5.3,5.7-14.1,6-19.8,0.7L107,149.4
	C99.4,142.2,98.9,130.2,106.1,122.5z"/>
<path class="st0" d="M293.3,124.5l-34.4,36.9c-3.8,4-10.1,4.3-14.1,0.5l-42-39.2l44.6-47.8c3.8-4,10.1-4.3,14.1-0.5l31,28.9
	C298.6,109,298.9,118.4,293.3,124.5z"/>
</svg>
